/* XPM */
static char *setpassword[] = {
/* columns rows colors chars-per-pixel */
"32 32 228 2",
"   c black",
".  c #010101",
"X  c #020202",
"o  c #040404",
"O  c gray2",
"+  c #060606",
"@  c #070707",
"#  c gray3",
"$  c gray4",
"%  c #0B0B0B",
"&  c gray5",
"*  c #0E0E0E",
"=  c #101010",
"-  c #111111",
";  c gray7",
":  c #131313",
">  c #151515",
",  c gray9",
"<  c #181818",
"1  c gray11",
"2  c gray12",
"3  c #202020",
"4  c #232323",
"5  c #252525",
"6  c gray15",
"7  c #272727",
"8  c #282828",
"9  c gray16",
"0  c #2A2A2A",
"q  c gray17",
"w  c #2C2C2C",
"e  c #2D2D2D",
"r  c gray18",
"t  c #2F2F2F",
"y  c gray19",
"u  c #313131",
"i  c #323232",
"p  c gray20",
"a  c #343434",
"s  c #353535",
"d  c gray21",
"f  c #373737",
"g  c gray22",
"h  c #393939",
"j  c #3A3A3A",
"k  c gray23",
"l  c #3C3C3C",
"z  c gray24",
"x  c #3E3E3E",
"c  c #3F3F3F",
"v  c gray25",
"b  c #414141",
"n  c gray26",
"m  c #434343",
"M  c #444444",
"N  c gray27",
"B  c #464646",
"V  c gray28",
"C  c #484848",
"Z  c #494949",
"A  c gray29",
"S  c #4B4B4B",
"D  c #4C4C4C",
"F  c gray30",
"G  c #4E4E4E",
"H  c gray31",
"J  c #505050",
"K  c #515151",
"L  c gray32",
"P  c #535353",
"I  c gray33",
"U  c #555555",
"Y  c #565656",
"T  c gray34",
"R  c #585858",
"E  c gray35",
"W  c #5A5A5A",
"Q  c #5B5B5B",
"!  c gray36",
"~  c #5D5D5D",
"^  c gray37",
"/  c #5F5F5F",
"(  c #606060",
")  c gray38",
"_  c #626262",
"`  c gray39",
"'  c #646464",
"]  c #656565",
"[  c gray40",
"{  c #676767",
"}  c #686868",
"|  c DimGray",
" . c gray42",
".. c #6C6C6C",
"X. c gray43",
"o. c #6F6F6F",
"O. c #717171",
"+. c #727272",
"@. c gray45",
"#. c gray46",
"$. c #767676",
"%. c #777777",
"&. c #797979",
"*. c gray48",
"=. c #7B7B7B",
"-. c gray49",
";. c #7E7E7E",
":. c #808080",
">. c gray51",
",. c #838383",
"<. c #848484",
"1. c gray52",
"2. c gray53",
"3. c #888888",
"4. c gray54",
"5. c #8B8B8B",
"6. c gray55",
"7. c #8D8D8D",
"8. c #8E8E8E",
"9. c gray56",
"0. c #909090",
"q. c gray57",
"w. c #939393",
"e. c gray58",
"r. c #979797",
"t. c gray60",
"y. c #9A9A9A",
"u. c #9B9B9B",
"i. c gray61",
"p. c #9D9D9D",
"a. c gray62",
"s. c #A0A0A0",
"d. c gray63",
"f. c #A0A2A0",
"g. c #A2A2A2",
"h. c gray64",
"j. c #A5A5A5",
"k. c #A7A7A7",
"l. c gray66",
"z. c #A9A9A9",
"x. c #AAAAAA",
"c. c #AAABAA",
"v. c gray67",
"b. c #ABACAB",
"n. c #ACACAC",
"m. c gray68",
"M. c #AEAEAE",
"N. c #AFAFAF",
"B. c gray69",
"V. c #B1B1B1",
"C. c #B2B2B2",
"Z. c gray70",
"A. c gray71",
"S. c #B6B6B6",
"D. c #B7B7B7",
"F. c #B7B8B7",
"G. c gray72",
"H. c #B8B9B8",
"J. c #B9B9B9",
"K. c gray73",
"L. c #BBBBBB",
"P. c #BCBCBC",
"I. c gray74",
"U. c gray",
"Y. c gray75",
"T. c #BFC0BF",
"R. c #C0C0C0",
"E. c #C1C1C1",
"W. c gray76",
"Q. c #C3C3C3",
"!. c gray77",
"~. c #C4C5C4",
"^. c #C5C5C5",
"/. c #C6C6C6",
"(. c gray78",
"). c #C8C8C8",
"_. c #C8C9C8",
"`. c gray79",
"'. c #CACACA",
"]. c #CBCBCB",
"[. c gray80",
"{. c #CDCDCD",
"}. c #CECECE",
"|. c gray81",
" X c #D0D0D0",
".X c gray82",
"XX c #D1D2D1",
"oX c #D2D2D2",
"OX c LightGray",
"+X c gray83",
"@X c #D4D5D4",
"#X c #D5D5D5",
"$X c gray84",
"%X c #D6D7D6",
"&X c #D7D7D7",
"*X c #D8D8D8",
"=X c gray85",
"-X c #DADADA",
";X c gray86",
":X c gainsboro",
">X c #DDDDDD",
",X c #DDDEDD",
"<X c #DFDFDF",
"1X c gray88",
"2X c #E1E1E1",
"3X c #E2E2E2",
"4X c gray89",
"5X c #E4E5E4",
"6X c #E6E6E6",
"7X c #E7E7E7",
"8X c gray91",
"9X c #E8E9E8",
"0X c #E9E9E9",
"qX c #EAEAEA",
"wX c gray92",
"eX c #EBECEB",
"rX c #ECECEC",
"tX c gray93",
"yX c #EEEEEE",
"uX c #EFEFEF",
"iX c gray94",
"pX c #F1F1F1",
"aX c #F2F3F2",
"sX c #F3F3F3",
"dX c gray96",
"fX c #F6F6F6",
"gX c gray100",
"hX c None",
/* pixels */
"hXhXhXhXp k z S O.%.4.q.u.q.7.,.$.! z k s p p hXhXhXhXhXhXhXhXhX",
"hXhXhX! N E a.). X X X X X).J.J.S.S.N.l.<.k p hX%.hXhXhXhXhXhXhX",
"hXhXk p ] ).|. X X#X X|.I.S.S.S.S.S.J./.).k p l.fXd.  hXhXhXhXhX",
"hXz r H /.|. X X X X|.J.S.J.J.S.J.J.S.).).z N.I.fX/.d.  hXhXhXhX",
"  > s d.|.|.|.|.|.).J.S.S.J.S.S.S.J.Q.).).( 3XQ.pX)./.l.hXhXhXhX",
"  % k S.).|.).).).S.e.-.E I o.,.a.I. X|.).,.pXQ.tX|./.N.  hXhXhX",
"  1 n Q././.).).I.q.z p p p p p s n S %.a.v.aXQ.tX X).v.  hXhXhX",
"  6 n Q./.Q./.S.v.%.r 4 > ; O       ; s k ).sXQ.wX#X|.v.  hXhXhX",
"  9 n S.Q.Q.I.N.N.v.d.4.| E K S p 9 r hX7 O.7XT.7X#X XN.  hXhXhX",
"    k v.I.I.S.J.J.S.J.S.Q.Q.J.l.7. .N s p   d.I.7X#X#Xv.  hXhXhX",
"    s O.J.S.S.S.S.S.S.I.Q.Q.Q.Q.Q.Q.F.$.m p ).J.3X#X=XN.  hXhXhX",
"    p z u.S.J.J.J.J.J.I.I.I.I.I.T.I.T.).h.N.eXF.:XOX:XN.  hXhXhX",
"hX    p n <.S.I.Q.I.I.I.I.I.J.I.J.J.I.Q.].-.wXN.=X X:XN.  hXhXhX",
"hX      p s H <.k.J.Q.Q.Q.Q.I.I.I.J.S.Q.).Q.7XN.&X|.:XN.  hXhXhX",
"hXhX4       9 p k N I ] <.l.J.Q.Q.I.J./.).$./.v.#X).=Xv.  hXhXhX",
"hXhXk k 6 %         % ; < k S l./.Q.I.(.|.T.F.l. X/.=Xv.  hXhXhX",
"] K S <.] H N N N N N S n & p -././.Q./.).v. Xu.f.].#Xl.  hXhXhX",
">   k J. XI.a.] K S n z z n E I.|././.Q.S.-.-.( E | -.a.  hXhXhX",
"  hXk I.#X=X=X:X#X).Q.J.I./.#X X|.|./.a.| I $.,.@.Q S K ( hXhXhX",
"  hXk Q.:X:X:X3X7X7X3X3X3X:X=X#X X XS.( O.7.4.%.] n I S H ! hXhX",
"  hXk Q.:X3X7X7X7X7X7X7X3X:X:X=X#X X$.( u.7.<.-.] N I I n I K hX",
"  hXk v.:X3X7XwXtXtXwXwX7X3X:X:X=Xv.I 7.u.4.<.%.( H I K S I E hX",
"    s z N $.k.).:X7XwXwX7X3X:X XN.o.S u.-.| o.%.] | K K K ! !   ",
"        ; < 1 9 9 r r r p p p r p E K ] H S S ! ( ] K H I ! ]   ",
"hX              ; 1 6 9 9 r 9 r 1 I N I O   4 N ( ( H H H ! I   ",
"hXhXhXhXhXhXhXhXhXhXhXhXhXhXhXhX  n S I     & N E n H S S I K   ",
"hXhXhXhXhXhXhXhXhXhXhXhXhXhXhXhX  O E H I ! S S ! n H S n H s hX",
"hXhXhXhXhXhXhXhXhXhXhXhXhXhXhXhXhX  9 H n S K | ( S H z N k   hX",
"hXhXhXhXhXhXhXhXhXhXhXhXhXhXhXhXhXhX  p K S ! | ! H z S k   hXhX",
"hXhXhXhXhXhXhXhXhXhXhXhXhXhXhXhXhXhXhX  & N H S H H N 4   hXhXhX",
"hXhXhXhXhXhXhXhXhXhXhXhXhXhXhXhXhXhXhXhX        O       hXhXhXhX",
"hXhXhXhXhXhXhXhXhXhXhXhXhXhXhXhXhXhXhXhXhX            hXhXhXhXhX"
};
