/* XPM */
static char *setpassword[] = {
/* columns rows colors chars-per-pixel */
"32 32 189 2",
"   c #926E35",
".  c #936F36",
"X  c #98743B",
"o  c #9C783F",
"O  c #A07C43",
"+  c #BC9B2F",
"@  c #C59504",
"#  c #CC9900",
"$  c #CF9C00",
"%  c #C99804",
"&  c #CA9906",
"*  c #C1920D",
"=  c #C5930E",
"-  c #C2940C",
";  c #CA9A09",
":  c #CA9A0B",
">  c #CD9C0A",
",  c #D09D00",
"<  c #D49F00",
"1  c #D19E09",
"2  c #D19F0A",
"3  c #D1A202",
"4  c #D7A500",
"5  c #D5A305",
"6  c #D8A300",
"7  c #DCA700",
"8  c #DAA707",
"9  c #DFAF01",
"0  c #DDAD04",
"q  c #D5A008",
"w  c #DAA708",
"e  c #D9AB0B",
"r  c #D8AB0C",
"t  c #E1AB00",
"y  c #E0AF00",
"u  c #E4B403",
"i  c #E9B700",
"p  c #EBBA00",
"a  c #ECBB00",
"s  c #EBBC02",
"d  c #EDBC00",
"f  c #ECBC01",
"g  c #EABA04",
"h  c #E2B308",
"j  c #C49E21",
"k  c #C4A329",
"l  c #C4A32B",
"z  c #C3A32C",
"x  c #C4A32C",
"c  c #EEC602",
"v  c #EDC605",
"b  c #F1C403",
"n  c #F2C403",
"m  c #F3C403",
"M  c #F0C206",
"N  c #F1C405",
"B  c #F2C404",
"V  c #F2C800",
"C  c #FAD600",
"Z  c #FAD605",
"A  c #FCD800",
"S  c #F4CF1D",
"D  c #F4D11D",
"F  c #F6D11D",
"G  c #A58149",
"H  c #A8854D",
"J  c #AD8A52",
"K  c #B18E56",
"L  c #B6935B",
"P  c #BB985D",
"I  c #9D9376",
"U  c #9E9476",
"Y  c #9E9576",
"T  c #9F9577",
"R  c #9E957A",
"E  c #A19162",
"W  c #A09677",
"Q  c #A29877",
"!  c #A49C77",
"~  c #A69F76",
"^  c #C9A75F",
"/  c #DBB85C",
"(  c #C09D61",
")  c #CDA861",
"_  c #C7B565",
"`  c #DBBE6A",
"'  c #DBC258",
"]  c #F1D65E",
"[  c #FBE54C",
"{  c #FDE74C",
"}  c #FDEC51",
"|  c #FFEE51",
" . c #FDEC52",
".. c #828481",
"X. c gray52",
"o. c #898989",
"O. c gray54",
"+. c #8B8B8B",
"@. c gray55",
"#. c #8E8F8C",
"$. c #8E8E8E",
"%. c gray56",
"&. c #9D9989",
"*. c #909090",
"=. c #929292",
"-. c #939393",
";. c #959595",
":. c gray59",
">. c #979797",
",. c #9F9C91",
"<. c #989898",
"1. c gray60",
"2. c #9A9A9A",
"3. c #9F9E98",
"4. c gray61",
"5. c #9D9D9D",
"6. c gray62",
"7. c #A09C91",
"8. c #A19D91",
"9. c #A29E91",
"0. c #A29F91",
"q. c #A09E9A",
"w. c #A7A485",
"e. c #A2A091",
"r. c #A7A793",
"t. c #A3A297",
"y. c #A2A29B",
"u. c #A0A0A0",
"i. c gray63",
"p. c gray64",
"a. c #A5A4A1",
"s. c #A4A5A3",
"d. c #A5A5A5",
"f. c gray65",
"g. c #A7A7A7",
"h. c gray66",
"j. c #A9A9A9",
"k. c #AAAAAA",
"l. c gray67",
"z. c #ACACAC",
"x. c gray68",
"c. c #AEAEAE",
"v. c #AFAFAF",
"b. c #B1B1B1",
"n. c gray70",
"m. c #B4B4B4",
"M. c gray71",
"N. c #B7B7B7",
"B. c gray72",
"V. c gray73",
"C. c #BBBBBB",
"Z. c #BCBCBC",
"A. c gray74",
"S. c gray",
"D. c gray75",
"F. c #EDE18D",
"G. c #FAFA96",
"H. c #FCFC96",
"J. c #C1C1C1",
"K. c gray76",
"L. c #C3C3C3",
"P. c gray77",
"I. c #C5C5C5",
"U. c #C6C6C6",
"Y. c gray78",
"T. c #C8C8C8",
"R. c #CACACA",
"E. c gray80",
"W. c #CDCDCD",
"Q. c gray81",
"!. c #D0D0D0",
"~. c #D2D2D1",
"^. c #DEDDDB",
"/. c gainsboro",
"(. c #DDDDDD",
"). c #E3E3E2",
"_. c #E4E4E4",
"`. c gray90",
"'. c #E6E6E6",
"]. c #EAEAEA",
"[. c gray92",
"{. c #ECECEC",
"}. c #EFEFEF",
"|. c gray94",
" X c gray98",
".X c #FBFBFB",
"XX c #FEFEFE",
"oX c gray100",
"OX c None",
/* pixels */
"OXOXOXOXOXOXOXOXOXOXOXOXOXOXOXOXOXOXOXOXOXOXOXOXOXOXOXOXOXOXOXOX",
"OXOXOXOXOXOXOXOXOXOXOXOXOXn.N.Z.Z.n.<.OXOXOXOXOXOXOXOXOXOXOXOXOX",
"OXOXOXOXOXOXOXOXOXOXOXB.Z.!.T.B.N.W.`.I.d.OXOXOXOXOXOXOXOXOXOXOX",
"OXOXOXOXOXOXOXOXOXOXZ.J.N.i.l.d.d.d.4.<.(.B.OXOXOXOXOXOXOXOXOXOX",
"OXOXOXOXOXOXOXOXOXZ.Z.d.l.l.OXOXOXOX<.l.X.W.J.OXOXOXOXOXOXOXOXOX",
"OXOXOXOXOXOXOXOXOXZ.N.d.l.OXOXOXOXOXOX$.i.4.!.OXOXOXOXOXOXOXOXOX",
"OXOXOXOXOXOXOXOXx.J.4.i.OXOXOXOXOXOXOXOX;.=.T.I.OXOXOXOXOXOXOXOX",
"OXOXOXOXOXOXOXOXn.Z.<.OXOXOXOXOXOXOXOXOXOX;.J.J.OXOXOXOXOXOXOXOX",
"OXOXOXOXOXOXOXOXN.N.$.OXOXOXOXOXOXOXOXOXOX*.m.Y.OXOXOXOXOXOXOXOX",
"OXOXOXOXOXOXOXOXB.l.$.OXOXOXOXOXOXOXOXOXOX=.p.E.OXOXOXOXOXOXOXOX",
"OXOXOXOXOXOXOXOXN.l.=.OXOXOXOXOXOXOXOXOXOX<.i.T.OXOXOXOXOXOXOXOX",
"OXOXOXOXOXOXOXOXN.l.4.OXOXOXOXOXOXOXOXOXOXd.i.T.OXOXOXOXOXOXOXOX",
"OXOXOXOXOXOXOXOXB.x.d.OXOXOXOXOXOXOXOXOXOXx.u.E.OXOXOXOXOXOXOXOX",
"OXOXOXOXOXOXOXOXB.x.l.OXOXOXOXOXOXOXOXOXOXN.u.T.OXOXOXOXOXOXOXOX",
"OXOXOXOXOXOX' ] / ) ( L J G o . . X O H J P ) ` F._ OXOXOXOXOXOX",
"OXOXOXOXOXOX' { F m d u 5 ; - * = ; 1 e u c C | H._ OXOXOXOXOXOX",
"OXOXOXOXOXOX' [ S M g 0 3 % @ & > 1 1 8 h v Z | G._ OXOXOXOXOXOX",
"OXOXOXOXOXOX' { F m d y j E T T U T W W Q ! ! w.r.&.=.=.=.$.OXOX",
"OXOXOXOXOXOX' { F m p r 3.^.[.[.{.{.{.{.{.{.{.{.{.{.{.{.{.`.Z.OX",
"OXOXOXOXOXOX' { F m d k B..X(.$.!.oXoXoXoXoXoXoXoXoXoXoXoXoX`.+.",
"OXOXOXOXOXOX' { F m d l Z.oXoXs.oXoXoXoXoXoXoXoXoXoXoXoXoXoX].$.",
"OXOXOXOXOXOX' { D v p x Z.oXoXs.oXoXoXoXoXoXoXoXoXoXoXoXoXoX].+.",
"OXOXOXOXOXOX' { F m d x Z.oXoXd.oXoXoXoXoXoXoXoXoXoXoXoXoXoX].+.",
"OXOXOXOXOXOX' { F m d x Z.oXoXp.oXoXoXoXoXoXoXoXoXoXoXoXoXoX].$.",
"OXOXOXOXOXOX' { F m d x Z.oXoXa.oXoXoXoXoXoXoXoXoXoXoXoXoXoX].$.",
"OXOXOXOXOXOX' { F B d x Z..X(...!.oXoXoXoXoXoXoXoXoXoXoXoXoX`.+.",
"OXOXOXOXOXOX' { F m d r a.).|.|.|.|.}.|.|.|.|.|.{.|.|.|.{.].I.OX",
"OXOXOXOXOXOX' { F m d y + R ,.,.7.0.7.0.0.0.e.y.y.q.4.4.4.<.+.OX",
"OXOXOXOXOXOX' { F m d y 4 , # $ < 6 7 t i V A | H._ OXOXOXOXOXOX",
"OXOXOXOXOXOX' { F B d y 4 , # $ < 6 7 t p V A | H._ OXOXOXOXOXOX",
"OXOXOXOXOXOXOXOXOXOXOXOXOXOXOXOXOXOXOXOXOXOXOXOXOXOXOXOXOXOXOXOX",
"OXOXOXOXOXOXOXOXOXOXOXOXOXOXOXOXOXOXOXOXOXOXOXOXOXOXOXOXOXOXOXOX"
};
