/* XPM */
static char *setpassword___[] = {
/* columns rows colors chars-per-pixel */
"16 16 76 1",
"  c #AD8323",
". c #AD8422",
"X c #BC9228",
"o c #BC922B",
"O c #B5983F",
"+ c #B99B3F",
"@ c #BEA13E",
"# c #CD9A00",
"$ c #C89E18",
"% c #D4A100",
"& c #D6A200",
"* c #DFAA00",
"= c #DFB20B",
"- c #D8AF15",
"; c #E7B600",
": c #E6B502",
"> c #E7B602",
", c #D0A82E",
"< c #C7AD3F",
"1 c #D1A730",
"2 c #E7BF30",
"3 c #EEC000",
"4 c #F5CA0E",
"5 c #FFE31D",
"6 c #EBCD39",
"7 c #B4A579",
"8 c #D3C24F",
"9 c #F9E357",
"0 c #FAE555",
"q c #8B8B8B",
"w c #909090",
"e c #939393",
"r c gray58",
"t c gray59",
"y c gray62",
"u c #9F9F9F",
"i c gray64",
"p c gray67",
"a c #ACACAC",
"s c gray68",
"d c #AEAEAE",
"f c gray69",
"g c gray70",
"h c gray71",
"j c #B7B7B7",
"k c gray73",
"l c #BBBBBB",
"z c #BCBCBC",
"x c gray",
"c c #C7C38C",
"v c #EAE286",
"b c #EAE486",
"n c #CDC8B9",
"m c #C0C0C0",
"M c gray76",
"N c #C4C5C4",
"B c #C6C6C6",
"V c gray79",
"C c #CACACA",
"Z c gray81",
"A c #D5D1C2",
"S c #D7D3C3",
"D c #D8D3C3",
"F c #D9D5C3",
"G c #DBD8C6",
"H c #D4D5D4",
"J c #D7D7D7",
"K c #D9D8D0",
"L c #E6E4DC",
"P c #EAE8E0",
"I c #ECECEC",
"U c gray95",
"Y c #F4F4F4",
"T c #F6F6F6",
"R c gray100",
"E c None",
/* pixels */
"EEEEEEEEEEEEEEEE",
"EEEEElgppplEEEEE",
"EEEExdyEEtiVEEEE",
"EEEEmeEEEEqmEEEE",
"EEEEjtEEEEqlEEEE",
"EEEEjiEEEEijEEEE",
"EEEEjdEEEEdjEEEE",
"EEE921o .o,6vEEE",
"EEE04;$O+@<8cEEE",
"EEE94=nHITTTTTUd",
"EEE94-PHRRRRRRRV",
"EEE94-PHRRRRRRRV",
"EEE04-LNTRRRRRRB",
"EEE04;7AADFGKJZE",
"EEE04;&#&*35bEEE",
"EEEEEEEEEEEEEEEE"
};
