/* XPM */
static char *setpassword-16[] = {
/* columns rows colors chars-per-pixel */
"16 16 132 2",
"   c black",
".  c #010101",
"X  c #020202",
"o  c #090909",
"O  c #0C0C0C",
"+  c gray6",
"@  c #101010",
"#  c #111111",
"$  c #191919",
"%  c #1D1D1D",
"&  c gray14",
"*  c gray15",
"=  c #272727",
"-  c gray16",
";  c #2A2A2A",
":  c gray17",
">  c #2C2C2C",
",  c #2F2F2F",
"<  c gray20",
"1  c #343434",
"2  c #353535",
"3  c #373737",
"4  c gray23",
"5  c gray24",
"6  c #3E3E3E",
"7  c gray26",
"8  c #434343",
"9  c #444444",
"0  c #484848",
"q  c gray29",
"w  c #4B4B4B",
"e  c #4C4C4C",
"r  c gray31",
"t  c #505050",
"y  c #515151",
"u  c gray32",
"i  c gray33",
"p  c #555555",
"a  c #565656",
"s  c gray34",
"d  c #585858",
"f  c gray35",
"g  c #5A5A5A",
"h  c #5B5B5B",
"j  c gray36",
"k  c gray37",
"l  c #606060",
"z  c gray38",
"x  c gray39",
"c  c #646464",
"v  c #656565",
"b  c gray40",
"n  c #676767",
"m  c #686868",
"M  c #6C6C6C",
"N  c #717171",
"B  c #727272",
"V  c gray45",
"C  c #777777",
"Z  c gray48",
"A  c gray49",
"S  c #7E7E7E",
"D  c gray50",
"F  c #808080",
"G  c gray51",
"H  c #838383",
"J  c #858584",
"K  c #888888",
"L  c gray54",
"P  c gray55",
"I  c #8E8E8E",
"U  c #909090",
"Y  c #939393",
"T  c #959595",
"R  c gray60",
"E  c #9A9A9A",
"W  c #9B9B9B",
"Q  c #9D9D9D",
"!  c #A0A0A0",
"~  c #A2A2A2",
"^  c gray64",
"/  c #A5A5A5",
"(  c gray65",
")  c gray66",
"_  c #A9A9A9",
"`  c #AAAAAA",
"'  c gray67",
"]  c #ACACAC",
"[  c #AFAFAF",
"{  c gray69",
"}  c #B2B2B2",
"|  c gray70",
" . c #B4B4B4",
".. c gray71",
"X. c #B6B6B6",
"o. c #B7B7B7",
"O. c gray72",
"+. c #B9B9B9",
"@. c #BABBBA",
"#. c #BBBBBB",
"$. c #BCBCBC",
"%. c gray74",
"&. c gray",
"*. c gray75",
"=. c #C0C0C0",
"-. c #C1C1C1",
";. c gray76",
":. c #C3C3C3",
">. c #C3C4C3",
",. c gray77",
"<. c #C6C6C6",
"1. c #C8C8C8",
"2. c gray79",
"3. c #CACACA",
"4. c #CBCCCB",
"5. c gray80",
"6. c #CDCDCD",
"7. c gray81",
"8. c gray82",
"9. c #D5D5D5",
"0. c #D5D6D5",
"q. c #D7D7D7",
"w. c #D8D9D8",
"e. c gray86",
"r. c gainsboro",
"t. c #E2E2E2",
"y. c gray89",
"u. c #E7E7E7",
"i. c gray91",
"p. c gray92",
"a. c gray100",
"s. c None",
/* pixels */
"s.d 7 G `  . .` Q D e 1 s.s.s.s.",
"1 4 $.7.8.3.@.o.o.*.D | ! ` s.s.",
"O G 7.7.,.` W ( $.3.L t.] ` s.s.",
"+ E ,.*.! , % $ * u E p.@.{ s.s.",
"  J *. . .] ^ P m 6 a 4.*. .s.s.",
"  e  .o.o.@.*.*.*. .S q.,.$.s.s.",
"  + u ! o.$.$.#.@.$.] w.,.*.s.s.",
"s.> + # * 6 V ] *.*.{ @.,.$.s.s.",
"> S ^ M e 9 9 J 3.,.T H P { s.s.",
"  J q.e.r.9.w.9.7.T V S k u z s.",
"  H r.y.i.u.y.r.3.V U G a a t 9 ",
"  * 4 V Y ^ ( U v v z v v u e d ",
"        % - - - v d   q a e t d ",
"s.s.s.s.s.s.s.s.s.z u d u q d Z ",
"s.s.s.s.s.s.s.s.s.1 k k d a 1 s.",
"s.s.s.s.s.s.s.s.s.s.s.  O s.s.s."
};
