/* XPM */
static char *setpassword_16[] = {
/* columns rows colors chars-per-pixel */
"16 16 75 1 ",
"  c #AD8323",
". c #AD8422",
"X c #BC9228",
"o c #BC922B",
"O c #B5983F",
"+ c #B99B3F",
"@ c #BEA13E",
"# c #CD9A00",
"$ c #C89E18",
"% c #D4A100",
"& c #D6A200",
"* c #DFAA00",
"= c #DFB20B",
"- c #D8AF15",
"; c #E7B600",
": c #E6B502",
"> c #E7B602",
", c #D0A82E",
"< c #C7AD3F",
"1 c #D1A730",
"2 c #E7BF30",
"3 c #EEC000",
"4 c #F5CA0E",
"5 c #FFE31D",
"6 c #EBCD39",
"7 c #B4A579",
"8 c #D3C24F",
"9 c #F9E357",
"0 c #FAE555",
"q c gray55",
"w c gray56",
"e c #929292",
"r c #939393",
"t c gray59",
"y c gray62",
"u c #9F9F9F",
"i c gray64",
"p c #A4A4A4",
"a c gray67",
"s c #ACACAC",
"d c #AEAEAE",
"f c #B1B1B1",
"g c #B4B4B4",
"h c #B6B6B6",
"j c gray72",
"k c #B9B9B9",
"l c #BCBCBC",
"z c gray",
"x c #C7C38C",
"c c #EAE286",
"v c #EAE486",
"b c #CDC8B9",
"n c #C0C0C0",
"m c #C1C1C1",
"M c gray77",
"N c #C4C5C4",
"B c #CACACA",
"V c #CBCBCB",
"C c gray81",
"Z c #D5D1C2",
"A c #D7D3C3",
"S c #D8D3C3",
"D c #D9D5C3",
"F c #DBD8C6",
"G c #D4D5D4",
"H c gray84",
"J c #D9D8D0",
"K c #E6E4DC",
"L c #EAE8E0",
"P c #ECECEC",
"I c gray95",
"U c #F4F4F4",
"Y c #F6F6F6",
"T c gray100",
"R c None",
/* pixels */
"RRRRRRRRRRRRRRRR",
"RRRRRzhaaajRRRRR",
"RRRRzsyRRepVRRRR",
"RRRRneRRRRqnRRRR",
"RRRRhtRRRRejRRRR",
"RRRRhpRRRRyjRRRR",
"RRRRjfRRRRsjRRRR",
"RRR921o .o,6cRRR",
"RRR04;$O+@<8xRRR",
"RRR94=bGPYYYYYIs",
"RRR94-LGTTTTTTTV",
"RRR94-LGTTTTTTTV",
"RRR04-KMYTTTTTTM",
"RRR04;7ZZSDFJHCR",
"RRR04;&#&*35vRRR",
"RRRRRRRRRRRRRRRR"
};
