/* XPM */
static char *setpassword-16[] = {
/* columns rows colors chars-per-pixel */
"16 16 158 2",
"   c black",
".  c gray6",
"X  c #131313",
"o  c #151515",
"O  c #191919",
"+  c gray10",
"@  c #1B1B1B",
"#  c #1E1E1E",
"$  c #351D1D",
"%  c gray13",
"&  c #232323",
"*  c #252525",
"=  c gray15",
"-  c #272727",
";  c #2A2222",
":  c #282828",
">  c gray16",
",  c gray17",
"<  c gray18",
"1  c #2F2F2F",
"2  c #342424",
"3  c #313131",
"4  c gray20",
"5  c #353535",
"6  c gray21",
"7  c #3F3232",
"8  c #3A3A3A",
"9  c gray23",
"0  c #3D3939",
"q  c #3C3C3C",
"w  c #3E3E3E",
"e  c #422E2E",
"r  c #4A2828",
"t  c #4D2E2E",
"y  c #5B2C2C",
"u  c #573B3B",
"i  c #6B2F2F",
"p  c #7C2B2B",
"a  c #783636",
"s  c gray26",
"d  c #534141",
"f  c #544040",
"g  c #5A4949",
"h  c #5D4A4A",
"j  c #515151",
"k  c #555555",
"l  c #565656",
"z  c gray35",
"x  c #604444",
"c  c #625E5E",
"v  c gray39",
"b  c #666766",
"n  c #6A6A6A",
"m  c #727272",
"M  c #747474",
"N  c #767676",
"B  c #797A79",
"V  c #7C7C7C",
"C  c #991717",
"Z  c #9F1D1D",
"A  c #802929",
"S  c #812929",
"D  c #892D2D",
"F  c #823A3A",
"G  c #973D3D",
"H  c #9D3535",
"J  c #983D3D",
"K  c #AC0707",
"L  c #AB0E0E",
"P  c #AE0C0C",
"I  c #A71111",
"U  c #AB1515",
"Y  c #B01212",
"T  c #B11414",
"R  c #B11515",
"E  c #B01A1A",
"W  c #B41D1D",
"Q  c #A82424",
"!  c #A53333",
"~  c #B62323",
"^  c #B72626",
"/  c #B73535",
"(  c #BC3535",
")  c #BC3737",
"_  c #BE3B3B",
"`  c #8E7574",
"'  c #B44444",
"]  c #BE4141",
"[  c #C14545",
"{  c #C75858",
"}  c #CE6B6B",
"|  c #808080",
" . c #848484",
".. c #868686",
"X. c #888888",
"o. c #8B8B8B",
"O. c gray55",
"+. c #8E8E8E",
"@. c gray56",
"#. c gray58",
"$. c #959595",
"%. c gray59",
"&. c #979797",
"*. c #989898",
"=. c #9B9B9B",
"-. c #9D9D9D",
";. c #9F9F9F",
":. c #A0A0A0",
">. c gray63",
",. c #A4A4A4",
"<. c #A5A5A5",
"1. c #A7A7A7",
"2. c #AEA3A3",
"3. c gray66",
"4. c #A9A9A9",
"5. c gray67",
"6. c #AEAEAE",
"7. c #B1AEAE",
"8. c #B2B2B2",
"9. c gray71",
"0. c #B6B6B6",
"q. c #B7B7B7",
"w. c #B9B9B9",
"e. c gray73",
"r. c #BABBBA",
"t. c #BBBBBB",
"y. c #BCBCBC",
"u. c gray74",
"i. c gray75",
"p. c #C0C0C0",
"a. c gray77",
"s. c #C5C5C5",
"d. c gray79",
"f. c #CACACA",
"g. c #CBCBCB",
"h. c gray80",
"j. c #CDCDCD",
"k. c gray81",
"l. c #CFD0CF",
"z. c #D0D0D0",
"x. c gray82",
"c. c #D2D2D2",
"v. c LightGray",
"b. c gray83",
"n. c #D5D5D5",
"m. c gray84",
"M. c gray85",
"N. c gray86",
"B. c gray88",
"V. c #E1E1E1",
"C. c gray90",
"Z. c #E6E6E6",
"A. c #E7E7E7",
"S. c #E8E9E8",
"D. c gray92",
"F. c #F4F5F4",
"G. c gray100",
"H. c None",
/* pixels */
"H.H.6 9 9 9 9 q q q 9 9 4 H.H.H.",
"H.3 n 3.0.y.y.y.3.>.c x u ; H.H.",
", v 0.w.y.y.w.<.;.g H [ Z D e H.",
"- >.M B >.| b m n G } ' $ y F # ",
"- $.S.F.w.V.S.w.7.] { / r i Q 7 ",
"z A.A.A.V.N.m.l.` _ ( ( W ~ ^ t ",
"& ;.g.c.m.N.c.h.2.I P J ! K C 0 ",
". l  .+.+.+.+.X...S Y Y U P a - ",
"  3 ;.<.3.3.3.3.3.g p U E p 2 H.",
"H.X , j V X.X. .@.6.$.d d & H.H.",
"3 s q 6 , , - - 1 3.7.6.=.- H.H.",
"6 +.@.$.=.;.;.;.<.y.y.0.&.& H.H.",
"6 y.p.s.g.g.g.h.g.s.p.y.M @ H.H.",
"6 y.s.h.c.m.m.c.h.h.s.w.0 . H.H.",
"1 0.y.s.g.h.c.h.g.s.3.l + H.H.H.",
"+ - - - - - , , - , & o   H.H.H."
};
