/* XPM */
static char *setpassword[] = {
/* columns rows colors chars-per-pixel */
"32 32 188 2 ",
"   c #926E35",
".  c #937037",
"X  c #99753C",
"o  c #9C7940",
"O  c #A07C43",
"+  c #BC9C2F",
"@  c #C69604",
"#  c #CD9A00",
"$  c #C99804",
"%  c #CB9906",
"&  c #C2930D",
"*  c #C3950C",
"=  c #C5940E",
"-  c #CA9A09",
";  c #CA9B0B",
":  c #CD9D0A",
">  c #D09C00",
",  c #D09D00",
"<  c #D19F09",
"1  c #D2A302",
"2  c #D4A000",
"3  c #D6A405",
"4  c #D8A400",
"5  c #D8A600",
"6  c #DDA800",
"7  c #DAA807",
"8  c #DEAE04",
"9  c #D2A00A",
"0  c #D6A108",
"q  c #DAA808",
"w  c #DAAC0B",
"e  c #D9AC0C",
"r  c #E1AC00",
"t  c #E1B000",
"y  c #E0B001",
"u  c #E4B403",
"i  c #E9B700",
"p  c #EBBB00",
"a  c #EBBB02",
"s  c #ECBC00",
"d  c #EDBD00",
"f  c #ECBC03",
"g  c #EABB04",
"h  c #E2B308",
"j  c #C59F21",
"k  c #C5A329",
"l  c #C5A32B",
"z  c #C4A32C",
"x  c #C4A42C",
"c  c #EFC602",
"v  c #EEC605",
"b  c #F1C306",
"n  c #F2C306",
"m  c #F2C504",
"M  c #F3C504",
"N  c #F3C505",
"B  c #F4C504",
"V  c #F3C800",
"C  c #FBD700",
"Z  c #FBD705",
"A  c #FDD900",
"S  c #F5CF1D",
"D  c #F7D11D",
"F  c #F5D11F",
"G  c #F6D11E",
"H  c #A58249",
"J  c #A9854D",
"K  c #AE8A52",
"L  c #B18F56",
"P  c #B6935B",
"I  c #BB995E",
"U  c #9E9476",
"Y  c #9E9576",
"T  c #9F9577",
"R  c #9E957A",
"E  c #A19162",
"W  c #A09677",
"Q  c #A29877",
"!  c #A49C77",
"~  c #A79F76",
"^  c #CAA75F",
"/  c #DCB95C",
"(  c #C09D62",
")  c #CDA962",
"_  c #C6B464",
"`  c #DBBF6B",
"'  c #DBC159",
"]  c #F2D75F",
"[  c #FCE54E",
"{  c #FEE74E",
"}  c #FDED53",
"|  c #FFEF53",
" . c #FDED54",
".. c gray52",
"X. c #888986",
"o. c gray54",
"O. c #8B8B8B",
"+. c gray55",
"@. c #8E8F8C",
"#. c #8E8E8E",
"$. c gray56",
"%. c #9C9889",
"&. c #909090",
"*. c gray57",
"=. c #929292",
"-. c #939393",
";. c gray58",
":. c #959595",
">. c #9F9C91",
",. c #989898",
"<. c gray60",
"1. c #9A9A9A",
"2. c #9B9B9B",
"3. c #9F9E98",
"4. c gray61",
"5. c #9D9D9D",
"6. c gray62",
"7. c #9F9F9F",
"8. c #A09C91",
"9. c #A09D91",
"0. c #A19D91",
"q. c #A29E91",
"w. c #A29F91",
"e. c #A09E9A",
"r. c #A7A486",
"t. c #A3A091",
"y. c #A7A793",
"u. c #A3A297",
"i. c #A3A29B",
"p. c #A0A0A0",
"a. c gray64",
"s. c #A5A4A1",
"d. c #A4A5A3",
"f. c #A4A4A4",
"g. c #A5A5A5",
"h. c gray65",
"j. c #A7A7A7",
"k. c gray66",
"l. c #AAAAAA",
"z. c gray67",
"x. c #ACACAC",
"c. c #AEAEAE",
"v. c gray69",
"b. c #B1B1B1",
"n. c #B2B2B2",
"m. c gray70",
"M. c #B4B4B4",
"N. c gray71",
"B. c #B7B7B7",
"V. c gray72",
"C. c gray73",
"Z. c #BBBBBB",
"A. c #BCBCBC",
"S. c gray74",
"D. c gray",
"F. c gray75",
"G. c #EEE28E",
"H. c #FBFA97",
"J. c #FDFC97",
"K. c #C1C1C1",
"L. c #C3C3C3",
"P. c gray77",
"I. c #C5C5C5",
"U. c #C6C6C6",
"Y. c #C8C8C8",
"T. c #CBCBCB",
"R. c gray80",
"E. c #CDCDCD",
"W. c #D0D0D0",
"Q. c #D2D2D1",
"!. c #D4D5D4",
"~. c #DEDDDB",
"^. c gainsboro",
"/. c #DDDDDD",
"(. c #DFDFDF",
"). c #E3E3E2",
"_. c gray90",
"`. c #E6E6E6",
"'. c #EAEAEA",
"]. c gray92",
"[. c #ECECEC",
"{. c #EFEFEF",
"}. c gray94",
"|. c gray98",
" X c #FBFBFB",
".X c #FEFEFE",
"XX c gray100",
"oX c None",
/* pixels */
"oXoXoXoXoXoXoXoXoXoXoXoXoXoXoXoXoXoXoXoXoXoXoXoXoXoXoXoXoXoXoXoX",
"oXoXoXoXoXoXoXoXoXoXoXoXoXb.B.S.S.b.5.oXoXoXoXoXoXoXoXoXoXoXoXoX",
"oXoXoXoXoXoXoXoXoXoXoXA.S.W.Y.B.B.Y._.I.l.oXoXoXoXoXoXoXoXoXoXoX",
"oXoXoXoXoXoXoXoXoXoXS.F.B.5.h.h.h.h.<.<./.V.oXoXoXoXoXoXoXoXoXoX",
"oXoXoXoXoXoXoXoXoXS.F.h.h.h.oXoXoXoX<.h...R.I.oXoXoXoXoXoXoXoXoX",
"oXoXoXoXoXoXoXoXoXS.B.5.l.oXoXoXoXoXoX#.5.5.W.oXoXoXoXoXoXoXoXoX",
"oXoXoXoXoXoXoXoXc.S.<.5.oXoXoXoXoXoXoXoX:.*.Y.I.oXoXoXoXoXoXoXoX",
"oXoXoXoXoXoXoXoXB.S.*.oXoXoXoXoXoXoXoXoXoX:.K.K.oXoXoXoXoXoXoXoX",
"oXoXoXoXoXoXoXoXB.B.X.oXoXoXoXoXoXoXoXoXoX*.B.Y.oXoXoXoXoXoXoXoX",
"oXoXoXoXoXoXoXoXV.l.-.oXoXoXoXoXoXoXoXoXoX:.p.R.oXoXoXoXoXoXoXoX",
"oXoXoXoXoXoXoXoXV.z.5.oXoXoXoXoXoXoXoXoXoX<.p.Y.oXoXoXoXoXoXoXoX",
"oXoXoXoXoXoXoXoXV.c.j.oXoXoXoXoXoXoXoXoXoXh.p.R.oXoXoXoXoXoXoXoX",
"oXoXoXoXoXoXoXoXV.b.b.oXoXoXoXoXoXoXoXoXoXl.p.R.oXoXoXoXoXoXoXoX",
"oXoXoXoXoXoXoXoXV.b.V.oXoXoXoXoXoXoXoXoXoXb.p.Y.oXoXoXoXoXoXoXoX",
"oXoXoXoXoXoX' ] / ) ( P K H o .   X O J L I ^ ` G._ oXoXoXoXoXoX",
"oXoXoXoXoXoX' { D B d y 3 - * & = - 9 7 u c C } J._ oXoXoXoXoXoX",
"oXoXoXoXoXoX' { D n g 8 1 $ @ % : 9 0 q h v Z } J._ oXoXoXoXoXoX",
"oXoXoXoXoXoX' { D B d y j E T T T T T T Q ! ! r.y.%.:.*.*.*.oXoX",
"oXoXoXoXoXoX' { D n s e 3.~.].].[.[.[.[.[.[.[.[.[.[.[.[.[._.S.oX",
"oXoXoXoXoXoX' { D m d k V. X~.@.W.XXXXXXXXXXXXXXXXXXXXXXXXXX_.X.",
"oXoXoXoXoXoX' { D n d k S.XXXXa.XXXXXXXXXXXXXXXXXXXXXXXXXXXX'.#.",
"oXoXoXoXoXoX' { D n s x Z.XXXXa.XXXXXXXXXXXXXXXXXXXXXXXXXXXX].X.",
"oXoXoXoXoXoX' { D B d x S.XXXXa.XXXXXXXXXXXXXXXXXXXXXXXXXXXX].+.",
"oXoXoXoXoXoX' { D n d l S.XXXXa.XXXXXXXXXXXXXXXXXXXXXXXXXXXX'.+.",
"oXoXoXoXoXoX' { D B d l S.XXXXh.XXXXXXXXXXXXXXXXXXXXXXXXXXXX'.+.",
"oXoXoXoXoXoX' { D B f x S. X(.X.!.XXXXXXXXXXXXXXXXXXXXXXXXXX`.X.",
"oXoXoXoXoXoX' { D B d w s.).{.}.}.}.}.}.}.}.}.}.}.}.}.}.}.].Y.oX",
"oXoXoXoXoXoX' { D B d y + T >.>.>.w.8.w.w.w.t.i.i.3.4.4.4.1.X.oX",
"oXoXoXoXoXoX' { D B d y 5 , # > , 4 6 r i V A | J._ oXoXoXoXoXoX",
"oXoXoXoXoXoX' { D B d y 5 , # , , 6 6 r i V A | J._ oXoXoXoXoXoX",
"oXoXoXoXoXoXoXoXoXoXoXoXoXoXoXoXoXoXoXoXoXoXoXoXoXoXoXoXoXoXoXoX",
"oXoXoXoXoXoXoXoXoXoXoXoXoXoXoXoXoXoXoXoXoXoXoXoXoXoXoXoXoXoXoXoX"
};
