/* XPM */
static char *setpassword[] = {
/* columns rows colors chars-per-pixel */
"32 32 99 2",
"   c #000000",
".  c #0D0D0D",
"X  c #141414",
"o  c #1A1717",
"O  c #1C1C1C",
"+  c #2D1C1C",
"@  c #242424",
"#  c #2B2B2B",
"$  c #3B2C2C",
"%  c #323232",
"&  c #3C3C3C",
"*  c #422B2B",
"=  c #413434",
"-  c #433B3B",
";  c #4A3333",
":  c #4C3B3B",
">  c #592C2C",
",  c #523333",
"<  c #513838",
"1  c #593434",
"2  c #5B3E3E",
"3  c #6F1010",
"4  c #7D1616",
"5  c #632C2C",
"6  c #6E2D2D",
"7  c #653232",
"8  c #693434",
"9  c #6B3C3C",
"0  c #732222",
"q  c #732F2F",
"w  c #7A2525",
"e  c #7C2929",
"r  c #434343",
"t  c #4C4545",
"y  c #4A4A4A",
"u  c #5D4545",
"i  c #5E4848",
"p  c #545454",
"a  c #595959",
"s  c #634444",
"d  c #6B4545",
"f  c #6D4848",
"g  c #6C5353",
"h  c #715959",
"j  c #626262",
"k  c #6C6C6C",
"l  c #78706F",
"z  c #737373",
"x  c #7B7B7B",
"c  c #881E1E",
"v  c #920404",
"b  c #9D0101",
"n  c #931212",
"m  c #9A1111",
"M  c #953C3C",
"N  c #9B3D3D",
"B  c #A20202",
"V  c #AA0202",
"C  c #AD0C0C",
"Z  c #AC1212",
"A  c #AB1919",
"S  c #B01313",
"D  c #B31A1A",
"F  c #A32B2B",
"G  c #AA2929",
"H  c #A13838",
"J  c #B52424",
"K  c #B72828",
"L  c #B82C2C",
"P  c #BA3232",
"I  c #BE3C3C",
"U  c #C14545",
"Y  c #C24949",
"T  c #C55353",
"R  c #C85C5C",
"E  c #CA6161",
"W  c #CD6969",
"Q  c #D07272",
"!  c #D47E7E",
"~  c #828382",
"^  c #8B8B8B",
"/  c #939393",
"(  c #9D9D9D",
")  c #A4A4A4",
"_  c #ABABAB",
"`  c #B3B3B3",
"'  c #BBBBBB",
"]  c #C3C3C3",
"[  c #CBCBCB",
"{  c #CFD0CF",
"}  c #D3D3D3",
"|  c #D7D8D7",
" . c #DADADA",
".. c #DFE0DF",
"X. c #E2E3E2",
"o. c #ECECEC",
"O. c #F2F2F2",
"+. c #FEFEFE",
"@. c None",
/* pixels */
"@.@.@.@.@.@.  @ # & & r r r r r r r r y r r y r %   @.@.@.@.@.@.",
"@.@.@.@.X % r r r r & & & r r & r & r & & & & & & % @.@.@.@.@.@.",
"@.@.@.% r r y / _ _ ` ' ' ' ' ' ' ) ) ( ) ( ~ a # @     @.@.@.@.",
"@.@.# r j ) ' ` ' ' ' ] ] ' ] ' ) ( ( ( r r i f f i =       @.@.",
"@.X % t ` ' ' ` ' ' ' ' ' ' ` ( ( ( / & g v C D C V n u     @.@.",
"  # & ) ` ` ' ' ' ' ' ' ' ` ( ( ) / % s C Y ! E n 8 w B u       ",
"  # j ` ` ` _ _ ` ` ` ` _ ( ( / k & g Z W Q Q A ; O o 6 b ;     ",
"  # ~ ) & & / ^ a _ x j # ~ j - ) x 4 T W W E e O #   < V 0 X   ",
"@ % x % ..' ..| ~ a z } ] { j z ' l A R R R R m + O   1 P B $   ",
"@ O ^ X.O.O.O.o...[  . .| | { ] ` i I T T Y T J q * , m Y C ,   ",
"o k |  ...X.X.X..... .| } } { [ ] 8 I Y Y Y U U J V C P I S >   ",
". ' +.O.O.O.o.o.o.X..... .| } { ( 7 L P K K K K K K J L P C 1   ",
"O % ` ] [ } } | | |  .} { [ [ ] [ 9 A C V V M N H Z V V J V ;   ",
". # y ` ] [ [ } } |  ..... .| | } h B D S Z F G G Z C C S B $   ",
"  @ y a ` ] [ [ { { } }  . .|  .} ' 3 S D D D D S S S S V 5 .   ",
"  O & x y p p p a a a a p a a a a p : b V S S S S S C V v $   @.",
"  . @ j ) ) ) ) ) _ _ ) _ _ ) _ ) ) r , B Z D D D D S n ;   @.@.",
"@.  O @ a ) _ _ _ _ _ _ _ _ _ _ _ _ ) r ; c J L P G q $     @.@.",
"@.@.  o O y z ^ ( _ _ _ _ _ _ ) _ _ _ _ x - : s 2 - @   @.@.@.@.",
"@.@.    X O O @ % r r y r y y y y a ( ` _ _ ) ^ / y #   @.@.@.@.",
"@.@.@.@.      X o o X o X o X X X # z ` ` _ _ _ _ j #   @.@.@.@.",
"@.# r t r r y r r & r r r t r r r & ^ ' ` ` ` ` _ z % X @.@.@.@.",
"# & r r r r r r y y y y y y y y y k ` ' ' ' ` ` ` z # o @.@.@.@.",
"# & ` ` ' ' ] ' ] ] ] ] ] ] ] ] ] ] ' ' ' ' ` ` ` a #   @.@.@.@.",
"@ r ' ' ' ] ] [ [ [ [ [ [ [ [ [ [ ] ] ] ] ' ' ' ` t @   @.@.@.@.",
"# & ' ] ] ] ] [ [ { { { { } { { [ [ [ [ ] ' ' ' ( & o   @.@.@.@.",
"@ & ' ] [ [ [ [ { } } } | } } } [ [ [ ] ] ] ' ' k # X   @.@.@.@.",
"# & ] ] ] [ [ [ } | |  . . . .} } } [ [ [ ] ] / & O   @.@.@.@.@.",
"@ & ] [ [ [ [ } }  . . ..... .| | } } [ [ ] ) r O .   @.@.@.@.@.",
"O & / _ _ ` ` ' ` ' ' ] ] ' ] ' ' ` ` ` ( k r O X   @.@.@.@.@.@.",
"X O @ # # # # % % % % # % % % % # % # % @ O o X   @.@.@.@.@.@.@.",
"  X O X X X X X X X X X X X X X X X X X X X     @.@.@.@.@.@.@.@."
};
