/* XPM */
static char *setpassword___[] = {
/* columns rows colors chars-per-pixel */
"16 16 76 1",
"  c #AC8323",
". c #AE8422",
"X c #BC9128",
"o c #BC922A",
"O c #B5983F",
"+ c #B99A3F",
"@ c #BEA13E",
"# c #CD9A00",
"$ c #C79E18",
"% c #D3A100",
"& c #D6A100",
"* c #DFA900",
"= c #DFB20B",
"- c #D8AF15",
"; c #E7B600",
": c #E6B502",
"> c #E7B602",
", c #EDBF00",
"< c #CFA72E",
"1 c #C6AD3F",
"2 c #D0A730",
"3 c #E7BF2F",
"4 c #F4C90D",
"5 c #FFE31C",
"6 c #EBCD38",
"7 c #B4A579",
"8 c #D3C24F",
"9 c #F8E357",
"0 c #F9E555",
"q c #8D8D8D",
"w c #8E8E8E",
"e c gray58",
"r c gray59",
"t c #979797",
"y c #9D9D9D",
"u c gray62",
"i c #A2A2A2",
"p c #A4A4A4",
"a c gray67",
"s c #ACACAC",
"d c gray68",
"f c #AEAEAE",
"g c gray70",
"h c #B4B4B4",
"j c #B7B7B7",
"k c gray72",
"l c gray73",
"z c #BBBBBB",
"x c gray",
"c c #C7C38C",
"v c #EAE286",
"b c #EAE486",
"n c #CDC8B9",
"m c #C0C0C0",
"M c #C1C1C1",
"N c #C4C5C4",
"B c #C6C6C6",
"V c gray79",
"C c #CACACA",
"Z c gray81",
"A c #D5D1C2",
"S c #D7D3C3",
"D c #D8D3C3",
"F c #D9D5C3",
"G c #DBD8C6",
"H c #D4D5D4",
"J c #D7D7D7",
"K c #D9D8D0",
"L c #E6E4DC",
"P c #EAE8E0",
"I c #ECECEC",
"U c gray95",
"Y c #F4F4F4",
"T c #F6F6F6",
"R c gray100",
"E c None",
/* pixels */
"EEEEEEEEEEEEEEEE",
"EEEEEkjffakEEEEE",
"EEEExfpEEepCEEEE",
"EEEEmyEEEEwmEEEE",
"EEEEkeEEEEwkEEEE",
"EEEEjeEEEEujEEEE",
"EEEEjiEEEEfjEEEE",
"EEE93<o .o26vEEE",
"EEE04;$O+@18cEEE",
"EEE94=nHITTTTTUf",
"EEE94-PHRRRRRRRC",
"EEE94-PHRRRRRRRC",
"EEE04-LNTRRRRRRB",
"EEE04;7AADFGKJZE",
"EEE04;%#&*,5bEEE",
"EEEEEEEEEEEEEEEE"
};
